<svg id="Layer_1" data-name="Layer 1" xmlns="http://www.w3.org/2000/svg" viewBox="0 0 1080 680">
  <defs>
    <style>
      .cls-1 {
        fill: #fff;
        stroke-width: 0px;
      }
    </style>
  </defs>
  <g>
    <path class="cls-1" d="M18.22,601.69c.27,10.76,1.59,14.17,5.13,15.2,2.48.67,5.37.8,6.56.8.65,0,1.05.28,1.05.8,0,.79-.79,1.05-2.37,1.05-7.48,0-12.72-.39-13.9-.39s-6.71.39-12.59.39c-1.32,0-2.1-.13-2.1-1.05,0-.52.38-.8,1.05-.8,1.05,0,3.41-.13,5.39-.8,3.26-.9,3.93-4.71,3.93-16.64l.13-75.18c0-5.11.39-6.56,1.44-6.56s3.28,2.89,4.6,4.2c1.96,2.24,21.51,23.36,41.7,45.01,12.99,13.9,27.29,29.9,31.49,34.22l-1.45-66.62c-.13-8.53-1.05-11.41-5.12-12.48-2.36-.52-5.39-.64-6.42-.64-.92,0-1.05-.39-1.05-.93,0-.79,1.05-.9,2.63-.9,5.9,0,12.21.37,13.63.37s5.79-.37,11.15-.37c1.46,0,2.38.12,2.38.9,0,.54-.54.93-1.46.93-.65,0-1.57,0-3.14.38-4.33.91-4.85,3.81-4.85,11.68l-.27,76.87c0,8.66-.27,9.31-1.18,9.31-1.05,0-2.63-1.44-9.58-8.39-1.45-1.3-20.34-20.59-34.25-35.55-15.21-16.4-30.04-32.92-34.23-37.64l1.69,62.83Z"/>
    <path class="cls-1" d="M166.54,525.79c25.97,0,45.64,15.88,45.64,41.85s-18.48,45.52-46.3,45.52c-31.6,0-45.13-23.76-45.13-43.82,0-17.98,13.92-43.56,45.79-43.56ZM169.16,608.58c10.35,0,31.22-5.51,31.22-37.79,0-26.76-16.26-40.8-34.5-40.8-19.28,0-33.19,12.07-33.19,36.35,0,25.97,15.62,42.24,36.48,42.24Z"/>
    <path class="cls-1" d="M236.39,559.57c0-17.3,0-20.46-.27-24-.26-3.79-.91-5.64-4.72-6.16-.91-.13-2.89-.26-3.93-.26-.39,0-.92-.53-.92-.92,0-.65.53-.92,1.83-.92,5.26,0,12.99.27,13.66.27,1.17,0,10.89-.27,14.42-.27,7.35,0,15.49.66,21.52,4.85,2.89,2.09,8,7.49,8,15.21,0,8.27-3.42,16.28-14.16,25.46,9.44,11.8,17.44,21.9,24.14,28.86,6.15,6.29,9.95,7.34,12.84,7.75,2.23.38,3.41.38,4.07.38s1.05.54,1.05.92c0,.67-.66.92-2.75.92h-7.22c-6.56,0-9.44-.66-12.33-2.23-4.98-2.63-9.18-8.01-15.75-16.41-4.85-6.02-9.97-13.25-12.45-16.26-.53-.54-.79-.67-1.58-.67l-14.7-.26c-.51,0-.78.26-.78.93v2.62c0,10.75,0,19.42.53,24,.39,3.29,1.04,5.38,4.58,5.91,1.59.26,4.06.52,5.12.52.79,0,.92.54.92.92,0,.54-.52.92-1.83.92-6.3,0-13.64-.39-14.17-.39-.13,0-7.86.39-11.41.39-1.18,0-1.84-.25-1.84-.92,0-.38.25-.92.92-.92,1.05,0,2.49-.26,3.55-.52,2.22-.54,2.49-2.63,3.01-5.91.66-4.58.66-13.37.66-24.14v-19.68ZM246.36,569.03c0,.64.27,1.04.78,1.44,1.71.93,7.61,1.72,12.74,1.72,2.75,0,5.9-.13,8.66-1.98,3.94-2.62,6.96-8.53,6.96-17.05,0-13.92-7.61-21.92-19.95-21.92-3.4,0-7.07.4-8.25.67-.53.25-.92.64-.92,1.31v35.82Z"/>
    <path class="cls-1" d="M411.04,598.09c.41,3.92,1.19,9.97,5.9,11.54,3.28,1.03,6.3,1.03,7.47,1.03.54,0,.92.29.92.79,0,.67-1.04,1.05-2.36,1.05-2.63,0-15.47-.13-19.68-.52-2.75-.27-3.28-.66-3.28-1.18,0-.39.27-.77.78-.92.67-.14.79-1.83.54-3.94l-5.51-56.67h-.27l-27.81,56.94c-2.38,4.85-3.03,5.91-4.06,5.91s-1.71-1.06-3.95-5.12c-3.01-5.51-10.62-19.81-13.5-25.85-3.42-7.09-12.74-25.84-14.7-30.43h-.52l-4.46,50.37c-.14,1.71-.14,3.8-.14,5.64,0,1.7,1.05,2.76,2.76,3.16,1.96.52,3.67.64,4.45.64.41,0,.92.42.92.8,0,.8-.78,1.05-2.09,1.05-4.33,0-9.83-.39-10.75-.39-1.06,0-6.57.39-9.72.39-1.17,0-1.96-.26-1.96-1.05,0-.38.53-.8,1.18-.8.92,0,1.71-.12,3.41-.36,3.81-.67,3.93-4.73,4.46-8.95l8.4-72.79c.13-1.19.65-1.97,1.3-1.97.8,0,1.72.4,2.36,1.71l34.91,69.26,33.58-69.13c.53-1.06,1.05-1.84,1.84-1.84s1.44.92,1.71,3.01l7.86,68.63Z"/>
    <path class="cls-1" d="M465.81,530.58c1.46-3.67,1.97-4.32,2.76-4.32,1.17,0,1.58,1.57,2.76,4.07,2.09,4.73,20.59,50.76,27.68,67.69,4.19,9.96,7.34,11.41,9.84,12.2,1.71.52,3.41.64,4.59.64.66,0,1.46.28,1.46.92s-1.33.93-2.63.93c-1.71,0-10.23,0-18.23-.26-2.23-.13-4.06-.13-4.06-.79,0-.52.25-.52.79-.8.65-.26,1.84-1.16,1.05-3.01l-10.36-25.58c-.27-.53-.39-.65-1.05-.65h-26.63c-.51,0-.91.26-1.17.92l-6.56,17.84c-1.05,2.75-1.71,5.5-1.71,7.47,0,2.21,1.96,3.01,3.93,3.01h1.05c.92,0,1.19.41,1.19.92,0,.67-.66.93-1.71.93-2.76,0-9.06-.39-10.36-.39-1.19,0-6.97.39-11.68.39-1.44,0-2.23-.26-2.23-.93,0-.51.52-.92,1.05-.92.79,0,2.5-.13,3.4-.26,5.25-.65,7.49-4.58,9.72-10.22l27.14-69.81ZM478.67,577.02c.53,0,.53-.25.39-.79l-11.41-30.58c-.65-1.7-1.3-1.7-1.96,0l-10.76,30.58c-.13.54,0,.79.4.79h23.35Z"/>
    <path class="cls-1" d="M546.94,580.04c0,10.76,0,19.56.51,24.14.41,3.29.92,5.38,4.46,5.92,1.59.26,4.22.51,5.25.51.78,0,.92.54.92.92,0,.54-.54.92-1.84.92-6.29,0-13.65-.38-14.3-.38-.52,0-8.53.38-11.92.38-1.33,0-1.84-.25-1.84-.92,0-.39.25-.79.92-.79,1.05,0,2.35-.26,3.4-.51,2.38-.54,3.03-2.76,3.41-6.05.53-4.58.53-13.38.53-24.14v-46.83l-16.65.26c-7.23.15-9.98.93-11.69,3.54-1.3,1.97-1.44,2.76-1.83,3.54-.26.92-.66,1.06-1.18,1.06-.25,0-.79-.26-.79-.92,0-1.17,2.23-11.15,2.49-12.07.13-.65.79-2.09,1.18-2.09.79,0,1.96.92,5.12,1.31,3.28.39,7.74.53,9.05.53h43.56c3.8,0,6.43-.27,8.26-.53,1.7-.26,2.76-.53,3.28-.53s.52.66.52,1.31c0,3.42-.39,11.42-.39,12.73,0,.92-.52,1.44-1.05,1.44s-.79-.39-.92-1.96l-.13-1.19c-.38-3.4-2.88-5.89-13.9-6.16l-14.42-.26v46.83Z"/>
    <path class="cls-1" d="M612.31,579.25c0,10.76,0,19.55.52,24.14.4,3.29.79,5.38,4.2,5.91,1.73.26,4.2.52,5.25.52.65,0,.92.54.92.92,0,.54-.52.92-1.84.92-6.42,0-13.9-.39-14.43-.39-.66,0-7.87.39-11.41.39-1.19,0-1.84-.25-1.84-.92,0-.38.26-.92.92-.92,1.05,0,2.49-.26,3.55-.52,2.22-.54,2.62-2.63,3.01-5.91.53-4.58.66-13.37.66-24.14v-19.68c0-17.3,0-20.46-.27-24-.26-3.79-1.18-5.5-3.67-6.04-1.31-.25-2.75-.38-3.55-.38-.52,0-.92-.53-.92-.92,0-.65.53-.92,1.84-.92,3.81,0,11.01.27,11.68.27.53,0,8.01-.27,11.56-.27,1.3,0,1.84.27,1.84.92,0,.39-.54.92-.93.92-.8,0-1.57,0-2.89.26-3.14.66-3.81,2.23-4.06,6.16-.13,3.55-.13,6.7-.13,24v19.68Z"/>
    <path class="cls-1" d="M678.19,596.37c6.68-14.95,21.77-52.99,24.28-61,.5-1.71,1.04-3.27,1.04-4.18s-.39-1.99-1.57-2.38c-1.31-.38-2.63-.38-3.93-.38-.67,0-1.32-.41-1.32-.92,0-.66.79-.92,2.62-.92,4.59,0,9.85.26,11.3.26.65,0,5.64-.26,9.05-.26,1.18,0,1.83.26,1.83.77s-.39,1.06-1.31,1.06c-.8,0-3.42,0-5.51,1.3-1.57,1.04-3.41,2.63-6.42,10.24-1.32,3.14-6.96,16.52-12.86,30.17-7.09,16.27-12.21,28.34-14.83,33.85-3.14,6.69-3.8,8.39-4.97,8.39-1.31,0-2.1-1.44-4.34-6.82l-28.32-68.35c-2.63-6.3-4.21-7.48-8.01-8.4-1.84-.38-3.81-.38-4.46-.38s-.92-.67-.92-1.06c0-.64,1.19-.77,3.03-.77,5.51,0,12.07.26,13.5.26,1.19,0,6.3-.26,10.77-.26,2.09,0,3.14.26,3.14.77s-.38,1.06-1.17,1.06c-1.31,0-3.15.13-4.2.51-1.18.54-1.31,1.18-1.31,1.98,0,1.44,1.44,4.86,3.14,9.31l21.79,56.15Z"/>
    <path class="cls-1" d="M749.08,579.25c0,10.76,0,19.55.52,24.14.4,3.29.79,5.38,4.2,5.91,1.71.26,4.19.52,5.25.52.65,0,.92.54.92.92,0,.54-.53.92-1.84.92-6.44,0-13.92-.39-14.44-.39-.66,0-7.88.39-11.4.39-1.19,0-1.84-.25-1.84-.92,0-.38.25-.92.92-.92,1.05,0,2.49-.26,3.54-.52,2.23-.54,2.63-2.63,3.02-5.91.53-4.58.65-13.37.65-24.14v-19.68c0-17.3,0-20.46-.27-24-.25-3.79-1.17-5.5-3.67-6.04-1.3-.25-2.75-.38-3.53-.38-.52,0-.92-.53-.92-.92,0-.65.52-.92,1.84-.92,3.8,0,11.01.27,11.67.27.52,0,8-.27,11.54-.27,1.32,0,1.84.27,1.84.92,0,.39-.52.92-.91.92-.79,0-1.57,0-2.9.26-3.13.66-3.8,2.23-4.06,6.16-.12,3.55-.12,6.7-.12,24v19.68Z"/>
    <path class="cls-1" d="M787.02,559.12c0-17.3,0-20.46-.27-24.01-.27-3.8-.92-5.64-4.73-6.15-.92-.13-2.89-.26-3.93-.26-.39,0-.93-.54-.93-.92,0-.66.54-.92,1.84-.92,5.26,0,12.74.26,13.39.26,1.31,0,8.66-.26,15.47-.26,11.56,0,32.66-1.04,46.32,12.73,5.77,5.76,11.28,15.08,11.28,28.34,0,14.02-6.04,24.78-12.46,31.33-5,5.12-15.35,12.87-35.04,12.87-4.97,0-11.14-.39-16.12-.65-5-.4-8.93-.65-9.45-.65-.27,0-2.37.13-4.73.13-2.37.12-5.12.25-6.96.25-1.17,0-1.83-.25-1.83-.92,0-.38.25-.92.92-.92,1.05,0,2.49-.25,3.55-.51,2.23-.53,2.49-2.62,3.01-5.91.66-4.58.66-13.38.66-24.14v-19.68ZM797.52,571.19c0,11.82,0,22.18.12,24.27.13,2.75.4,6.83,1.32,8.02,1.44,2.09,5.51,4.46,19.15,4.46,10.63,0,20.09-3.56,27.03-10.11,6.04-5.63,9.06-16.27,9.06-26.49,0-14.18-6.18-23.23-10.9-27.94-10.89-11.02-23.6-12.48-37.39-12.48-2.22,0-5.9.4-6.95.79-1.05.39-1.44.91-1.44,2.23v37.26Z"/>
    <path class="cls-1" d="M909.61,530.58c1.43-3.67,1.96-4.32,2.74-4.32,1.19,0,1.57,1.57,2.76,4.07,2.11,4.73,20.59,50.76,27.68,67.69,4.2,9.96,7.34,11.41,9.85,12.2,1.69.52,3.4.64,4.58.64.65,0,1.44.28,1.44.92s-1.31.93-2.62.93c-1.72,0-10.24,0-18.24-.26-2.23-.13-4.06-.13-4.06-.79,0-.52.27-.52.78-.8.66-.26,1.84-1.16,1.06-3.01l-10.37-25.58c-.26-.53-.38-.65-1.05-.65h-26.62c-.54,0-.93.26-1.19.92l-6.56,17.84c-1.05,2.75-1.71,5.5-1.71,7.47,0,2.21,1.98,3.01,3.95,3.01h1.04c.92,0,1.19.41,1.19.92,0,.67-.65.93-1.72.93-2.75,0-9.04-.39-10.36-.39-1.17,0-6.94.39-11.67.39-1.45,0-2.24-.26-2.24-.93,0-.51.53-.92,1.06-.92.77,0,2.49-.13,3.4-.26,5.26-.65,7.47-4.58,9.72-10.22l27.16-69.81ZM922.46,577.02c.53,0,.53-.25.39-.79l-11.42-30.58c-.66-1.7-1.31-1.7-1.96,0l-10.76,30.58c-.13.54,0,.79.39.79h23.35Z"/>
    <path class="cls-1" d="M973.93,559.12c0-17.3,0-20.46-.27-24.01-.27-3.8-.92-5.64-4.72-6.15-.92-.13-2.89-.26-3.95-.26-.38,0-.91-.54-.91-.92,0-.66.54-.92,1.83-.92,5.26,0,12.74.26,13.38.26,1.32,0,8.67-.26,15.49-.26,11.54,0,32.66-1.04,46.31,12.73,5.77,5.76,11.29,15.08,11.29,28.34,0,14.02-6.04,24.78-12.48,31.33-4.99,5.12-15.35,12.87-35.02,12.87-4.97,0-11.15-.39-16.12-.65-5-.4-8.93-.65-9.47-.65-.26,0-2.35.13-4.71.13-2.36.12-5.12.25-6.95.25-1.18,0-1.84-.25-1.84-.92,0-.38.26-.92.91-.92,1.05,0,2.51-.25,3.55-.51,2.21-.53,2.48-2.62,3.02-5.91.65-4.58.65-13.38.65-24.14v-19.68ZM984.42,571.19c0,11.82,0,22.18.13,24.27.13,2.75.4,6.83,1.32,8.02,1.44,2.09,5.5,4.46,19.15,4.46,10.62,0,20.08-3.56,27.02-10.11,6.04-5.63,9.06-16.27,9.06-26.49,0-14.18-6.17-23.23-10.89-27.94-10.89-11.02-23.62-12.48-37.39-12.48-2.22,0-5.9.4-6.95.79-1.05.39-1.46.91-1.46,2.23v37.26Z"/>
  </g>
  <path class="cls-1" d="M129.42,270.35c0,72.65,0,111.82,11.93,122.04,9.64,8.51,24.4,12.49,68.67,12.49,30.11,0,52.25-.57,66.44-15.91,6.8-7.37,13.6-23.26,14.76-34.05.56-5.11,1.69-8.52,6.24-8.52,3.97,0,4.55,2.85,4.55,9.66,0,6.24-3.99,48.82-8.54,65.28-3.41,12.49-6.24,15.33-35.75,15.33-40.88,0-70.39-1.15-95.94-1.7-25.54-1.14-45.98-1.71-69.25-1.71-6.25,0-18.73,0-32.36.57-13.05,0-27.81,1.14-39.18,1.14-7.38,0-11.35-1.71-11.35-5.68,0-2.85,2.28-4.54,9.1-4.54,8.5,0,15.32-1.15,20.41-2.27,11.37-2.28,14.2-14.76,16.48-31.22,2.84-23.83,2.84-68.69,2.84-120.91v-99.91c0-86.28,0-102.18-1.16-120.34-1.13-19.3-5.66-28.38-24.4-32.36-4.55-1.13-11.35-1.69-18.73-1.69-6.23,0-9.64-1.14-9.64-5.11s3.97-5.11,12.48-5.11c26.69,0,62.45,1.7,77.79,1.7,13.6,0,55.06-1.7,77.19-1.7,7.93,0,11.91,1.14,11.91,5.11s-3.4,5.11-10.23,5.11c-6.21,0-15.31.56-22.13,1.69-15.32,2.85-19.85,12.49-21,32.36-1.15,18.16-1.15,34.07-1.15,120.34v99.91Z"/>
  <path class="cls-1" d="M1025.77,404.87c0,15.34-.57,16.47-7.38,20.44-36.9,19.3-92.52,25.55-136.8,25.55-139.08,0-262.27-65.86-262.27-222.52,0-90.83,47.12-154.41,98.79-185.64,54.5-32.92,105.02-36.89,152.7-36.89,39.16,0,89.13,6.81,100.47,9.08,11.92,2.27,31.79,5.67,44.85,6.24,6.82.56,7.96,2.84,7.96,6.81,0,6.24-3.97,22.13-3.97,93.1,0,9.08-1.72,11.92-6.25,11.92-3.96,0-5.11-2.84-5.69-7.39-1.69-13.05-4.53-31.22-19.29-47.11-17.04-18.16-62.43-44.28-126.6-44.28-31.2,0-72.65,2.27-112.39,35.2-31.78,26.68-52.21,69.25-52.21,139.08,0,122.04,77.75,213.44,197.53,213.44,14.76,0,34.65,0,48.26-6.25,8.52-3.97,10.79-11.36,10.79-21v-53.36c0-28.38,0-49.95-.58-66.98-.56-19.3-5.66-28.38-24.39-32.36-4.55-1.15-14.19-1.71-22.15-1.71-5.12,0-8.52-1.13-8.52-4.54,0-4.54,3.97-5.67,11.92-5.67,29.54,0,65.29,1.69,82.31,1.69s47.67-1.69,66.42-1.69c7.37,0,11.35,1.13,11.35,5.67,0,3.41-3.4,4.54-7.38,4.54-4.55,0-8.52.56-15.34,1.71-15.32,2.84-21,12.48-21.57,32.36-.56,17.03-.56,39.74-.56,68.12v62.43Z"/>
  <g>
    <rect class="cls-1" y="464.77" width="912.49" height="17.12"/>
    <rect class="cls-1" y="657.06" width="912.49" height="17.12"/>
  </g>
  <path class="cls-1" d="M975.3,674.19h-40.51v-17.12h40.51c48.29,0,87.58-39.3,87.58-87.59s-39.28-87.58-87.58-87.58h-23.39v-17.12h23.39c57.73,0,104.7,46.97,104.7,104.7s-46.97,104.71-104.7,104.71Z"/>
  <path class="cls-1" d="M582.59,325.56c-9.63,0-23.26-5.34-31.8-10.41-7.47-4.28-19.23-11.49-36.85-26.45,11.75-14.43,26.42-41.41,26.42-63.04,0-2.67-.77-4.81-4.79-5.34-14.95-1.59-25.65-1.86-32.04-1.86-2.14,0-4.29.54-4.29,1.86s1.61,1.87,3.22,1.87c4.01,0,9.63.8,13.09,4.27,4.01,4.01,5.08,9.08,5.08,13.09,0,16.31-6.15,34.19-13.61,44.35-8.55-7.23-41.4-37.93-50.51-47.82-2.47-2.69-4.8-5.24-7.06-7.74,17.42-15.8,82.66-78.91,36.46-98.04-7.2-4.01-18.72-6.67-32.31-6.67-35.8,0-57.44,28.05-57.44,49.15,0,12.03,3.21,22.97,13.1,36.85-20.84,12.3-40.88,33.13-40.88,64.37,0,23.25,18.15,59.04,64.91,59.04,39.53,0,60.63-22.7,66.77-28.84,29.4,23.23,35.78,25.11,55.55,25.11h26.19c2.41,0,4.54-.8,4.54-1.88,0-1.6-1.33-1.87-3.72-1.87ZM448.22,132.7c9.83,0,17.78,3.94,23.55,8.83,7.18,8.26,19.84,23.92,3.1,47.08-11.03,15.26-24.65,26-32.71,31.59-18.38-21-27.87-35.62-27.87-52.5,0-25.12,17.9-35,33.93-35ZM442.62,318.88c-29.92,0-53.43-24.04-53.43-57.43,0-21.37,10.15-35.8,24.05-44.87,7.47,10.95,24.56,29.91,31.5,37.4,6.96,7.48,33.4,32.85,48.36,45.13-9.1,9.36-25.65,19.77-50.48,19.77Z"/>
  <g>
    <rect class="cls-1" y="495.27" width="913.37" height="8.56"/>
    <rect class="cls-1" y="635.13" width="913.37" height="8.56"/>
  </g>
</svg>
